<mxfile host="app.diagrams.net" modified="2021-03-02T21:40:11.382Z" agent="5.0 (Windows NT 10.0; Win64; x64) AppleWebKit/537.36 (KHTML, like Gecko) Chrome/88.0.4324.150 Safari/537.36 OPR/74.0.3911.160" etag="4S7_alJxjRMGn8JKOP8t" version="14.4.3" type="github">
  <diagram id="WX7XtAJzGvmuWmqnkBRl" name="Page-1">
    <mxGraphModel dx="2764" dy="1442" grid="1" gridSize="10" guides="1" tooltips="1" connect="1" arrows="1" fold="1" page="1" pageScale="1" pageWidth="850" pageHeight="1100" math="0" shadow="0">
      <root>
        <mxCell id="0" />
        <mxCell id="1" parent="0" />
        <mxCell id="ZthvIoCq1YvcusgLg_iF-3" value="" style="whiteSpace=wrap;html=1;fillColor=#FFFFFF;" vertex="1" parent="1">
          <mxGeometry x="220" y="300" width="280" height="510" as="geometry" />
        </mxCell>
        <mxCell id="ZthvIoCq1YvcusgLg_iF-1" value="" style="verticalLabelPosition=bottom;verticalAlign=top;html=1;shadow=0;dashed=0;strokeWidth=1;shape=mxgraph.android.phone2;fillColor=#000000;" vertex="1" parent="1">
          <mxGeometry x="260" y="330" width="200" height="390" as="geometry" />
        </mxCell>
        <mxCell id="ZthvIoCq1YvcusgLg_iF-2" value="&lt;font size=&quot;1&quot; face=&quot;Roboto&quot; data-font-src=&quot;https://fonts.googleapis.com/css2?family=Roboto:wght@100&amp;amp;display=swap&quot;&gt;&lt;b style=&quot;font-size: 49px&quot;&gt;FRONT END&lt;/b&gt;&lt;/font&gt;" style="text;html=1;align=center;verticalAlign=middle;resizable=0;points=[];autosize=1;" vertex="1" parent="1">
          <mxGeometry x="210" y="45" width="300" height="30" as="geometry" />
        </mxCell>
        <mxCell id="ZthvIoCq1YvcusgLg_iF-5" value="&lt;font face=&quot;Roboto&quot; data-font-src=&quot;https://fonts.googleapis.com/css2?family=Roboto:wght@100&amp;amp;display=swap&quot; style=&quot;font-size: 41px&quot;&gt;React Native&lt;/font&gt;" style="text;html=1;align=center;verticalAlign=middle;resizable=0;points=[];autosize=1;fontStyle=1;" vertex="1" parent="1">
          <mxGeometry x="240" y="750" width="240" height="30" as="geometry" />
        </mxCell>
        <mxCell id="ZthvIoCq1YvcusgLg_iF-7" value="&lt;font style=&quot;font-size: 49px&quot; face=&quot;Roboto&quot; data-font-src=&quot;https://fonts.googleapis.com/css2?family=Roboto:wght@100&amp;amp;display=swap&quot;&gt;&lt;b&gt;BACK END&lt;/b&gt;&lt;/font&gt;" style="text;html=1;align=center;verticalAlign=middle;resizable=0;points=[];autosize=1;" vertex="1" parent="1">
          <mxGeometry x="1090" y="45" width="270" height="30" as="geometry" />
        </mxCell>
        <mxCell id="ZthvIoCq1YvcusgLg_iF-9" value="" style="aspect=fixed;perimeter=ellipsePerimeter;html=1;align=center;shadow=0;dashed=0;spacingTop=3;image;image=img/lib/active_directory/generic_server.svg;fillColor=#FFFFFF;" vertex="1" parent="1">
          <mxGeometry x="860" y="630" width="201.6" height="360" as="geometry" />
        </mxCell>
        <mxCell id="ZthvIoCq1YvcusgLg_iF-10" value="&lt;b&gt;Node.JS&lt;/b&gt;" style="text;html=1;align=center;verticalAlign=middle;resizable=0;points=[];autosize=1;fontSize=35;fontFamily=Roboto;fontSource=https%3A%2F%2Ffonts.googleapis.com%2Fcss2%3Ffamily%3DRoboto%3Awght%40100%26display%3Dswap;" vertex="1" parent="1">
          <mxGeometry x="890.8" y="1000" width="140" height="50" as="geometry" />
        </mxCell>
        <mxCell id="ZthvIoCq1YvcusgLg_iF-18" value="" style="shape=image;imageAspect=0;aspect=fixed;verticalLabelPosition=bottom;verticalAlign=top;fillColor=#FFFFFF;fontFamily=Roboto;fontSource=https%3A%2F%2Ffonts.googleapis.com%2Fcss2%3Ffamily%3DRoboto%3Awght%40100%26display%3Dswap;fontSize=35;image=data:image/png,iVBORw0KGgoAAAANSUhEUgAAAMgAAADICAYAAACtWK6eAAAYBUlEQVR4nO3dfXAbZ50H8O/uSrJkex0rCUmstG6LkzhtuBZG4dpSH1buCkzb+KjLjUvcAD1yWCW8nElcXqYMto8e3IEdAvSgNu3BcK3T8wHp1QHm0jJRcoZSWh1HaJooqVLqpHKSa2I7a1uytS/3hyvHL9JqJe+b7N9npjO19Gj1i73fffZ5npWWURRFASEkLdbqAgixMwoIISooIISooIAQooICQogKCgghKigghKiggBCiwmF1AfmQRwYgX45AGj4OZfwCZOE1KOI4lMkRQBZntVWGRHBrbkTxHY9aVO3iI52LYPyXfwvGO2f3YR1gXMvAOIrBOLxgy68FU7IWXNl1YFfcBMbhsabgBSiYgEjnfwtxsB/iuV9DSVzU/Lp5f0Sii7S/V1mEkrgIBRcBnIE0fHTW01z5jeDW3gbn1R8A415uTqELZPu9RzzzLCaPPwZ5fDDvbTAe2/8zlwRp+Cik4aOYPP4DOCvvhGvjx20fFNvuOfLwCSRe+irk0TNWl0LmYDwLPFWSRST/9AySA7+A6/pPwLV+mz6FGcCWg3TxzLMYP7KTwrHYySImj30fiRe+DEWMW11NWrYLyOTLP0Ei/NV5g22yeImDR5Dof9CWIbFVQOK938bkK9+2ugxiAenCHzD2+OesLmMe2wRkInQQiV/82OoyiIUmQ/1IHPyh1WXMYpuAjHa0QpmYsLoMYrGx737TVqdatpjFShz4d8gX3gTLOPPeBlt6NbiV75pemGKKygGmGExRKVCAC1R2xi6rRMnW/wLEOJSJUUAZhyycgTx2FvJIFNLQsZzWqlKUURny+STGe76Bko+2GlB57hg7fOT20odvh3T6dTA8h6LtyzUv7rGlV8NVfT+4t/ltP5++1MjDJ5A8cxDJ157WNOGiDImYeOISFEECW1GKFf/5exOqzM7yHkQ6OwDp9OsAACWpQB6WwGULCOuA+11fguPq95lQIckHW74RReUb4Vq/HRN/2ANx8Ihqe3lYgpKcOlbLg6MQT70Ix/p3m1GqKsvHIBO/+sWVHxIylHNJ9RewDnhu/hqFo0Aw7uVw3/wwHBXvVW2nnEsCCXn653ifPQbr1gfkv38+62d5YBKYzHzW59rwEXCrbzG6LKKzIv9DYIsr0j85qUz93WcQj75gQlXZWR4Q8eTJWT/LF0RIc35Z01gHnOs+bEJVRG+MwwPHdXenfU4amIR8YfY4RTw9aovZLEsDIp0dmNWtAoAiSJCOxdP2Is7KOwvykmkyxXnd3QA7Z3w5qUA6FociSLMfT8iQXnvZvOIysDQg4qsn0j4uD0xCDI8BydkhcVTUmFEWMQjj8IAru+HKA0kFYnhs3unV9NO//41JlWVmbQ/y+um0jyuCBOmVBKRTiVkhYVfcZFZpxCDcGv/U/yQVSKcSkF5JzO893iKejZhYWXqWTvPKg69nfu58EuLzYwAAbp0bTNlKOr1aBFj+2qnTqlcTEJ8fg3w+86ylfD7/zwDpxdKASJcuqD6fCokyIqHoDvN7j6GhIfT39yMWiyEet3bA6PF44PP5UFNTA6/Xa2ktC8GWVEAMj0F6JaEaDgCQLwsmVZWZtT1IloAAUyFRxmUU3VFsQkVXDA0Nobe31/JgpMTjcUSjUcRiMTQ0NBRsSJQEA/Gl8YynVbPEh4wvKAvLV9K1UAQJjMdl6nv29/cjHo+jqqoKgUAAPM+b+v5zCYKAUCiEaDSK/v5+1NXVWVpPvtiVldrCAUAekrM3Mpilg3RlVPvRmSleZWAl88ViMQCwRTgAgOd5BAIBAFdqK0SFNo60fKHQrlKnVnYIR0qqFruc9i0FhREQd2GUSTQqoL9n4VRKiAUoIISoKIhZLDvZu3evqe/X3Nxs6vuR2agHIUQF9SA5oiP60kI9CCEqKCCEqKCAEKKCAkKICgoIISooIISooGneHKUWCpubm01ZNKRpZWtRD0KICupBcjTziE5H98WPehBCVFBACFFBASFEBY1BFpF8Z9VoLJUZ9SCEqKAeZBHJtScw+8NfhYh6EEJUUA+SI1pJX1qoByFEBfUgOaKV9KWFehBCVFBACFFh8ZdXj1n59sTmcvlyc6MUREAYJwPGaZ8vkSYLwzgZTe2UZObbgZvF2oDIE1a+PSFZWRYQeXho3i2gM2GKWYBzG1wRMQtTqvEeIQkZ0jlrb+RpWUCks5lv4DkXs9IBtniNgdUQM7G+FZrbiqePGVhJdpatg0h/0n5kYHgWbEmFgdVoRyvpC8eWaR9Piq/+EUXvucfAatRZ1oNMHDmouS27xgnGbe4t2IhxHJveqbmteDRsYCXZWdaDJH/3oua23DWrwbiXG1iNdrSSvnBFt96J8Uee0NQ2+fuTBlejzpIeJHHwh1DGtc1xMzwHxzrtRxxif4717wbDc5raKoKExC+7Da4oM9MDoohxjP3LdzS3ZytdcPhqDayIWMH5rg2a2449+n0DK1FnekBGO3ZAHhzV3N5xixdcRY2BFREruO+5X3NbeXAUwp6dBlaTmWkBUcQ4RrseQOJnOYw9qorgrr3fkntrezxT7ykIgunvnUmqllRthazoPffAcUOZ5vaJp57F2I/bDawoPVMCIp3/LYY/U4f447/K6XWurdfCue7DBlWlzufzAQBCoZAtQiIIAkKhEIArtRU6/qFHc2o//sgTGPlC/dQis0kMm8VSxDiSJ36O+H/8K5L9p6EIUk6vd27hUXxXhyW9BwDU1NQgFoshGo0iGo1aUkM6Ho8HNTWL45TTsf7dKP70ds0zWgAweehlXHrpVhTd9Zcobvx7cGuqDazQwIAMP9AA8eiJvF7ruKUEpZ/+Z7DlG3WuSjuv14uGhgb09/cjFoshHrf2ylKPxwOfz4eamhp4vV5La9FTyUdbIcdOIfGzFzS/RhEkJJ56FomnnoXjhjJ4f2TcWolhAZFe1X4pyUzOLTxKP9sJx9otOleUO6/Xi7q6OqvLWPT4Lz4BuHYi8dSzOb9WPK19wicf9vnAlJuFe/t6lH2pxxbhIObid30PfPuDgNs+uyRgYEC0LASyq51geA7cJg/4r/8dSnf+1NLTKmIt9x1NWN77DFzvvR4Mz4Fd7cz+Io1XhOfL0rjK55NwNaxG+bd64b7tQcsG5MQ+uDXVWNbxDIo/Uw/5fNLqcqwNCLvaicne8xj+XAMmX/6JlaUQmxBPvYihT96O8e/u19aDGMywgDDF2XsD+XwSiiBBOhbHyM6HMNr1AJTEJaNKIjY39sSDGNqxHWL4dSiCpK0HMXjMYp8RUUJG/PFfYaT1dsgjA1ZXQ0ykiHGMtN6J8e88bfiYIleGTfNy667Jax0keUjASPyvsewfnrJ8wD40NETrIAZTxDguf/VDmPzlqbxez6019jTMsB7E+1gfVhz8HUo+tVvT6dZM4m/HIHzvI5aebg0NDaG3txfRaNTycABAPB5HNBpFb28vhobMu9TCaKMdO3IOB8NzcG7hwX+rCd4fHjGosimGfmCKLfei+GMPwP3BezH+6DcQ/5n2gfjk08MYr/4CSj70AwMrzKy/vx/xeBxVVVUIBALgeWu/dih1LVY0GkV/f/+iWMBMHNqb08WrwNRVFsWf+Dhc13/ClFlPU8YgbLkXpV/8OvivPJzT6yZ+8jzENw4ZVJW6WCwGALYIBwDwPI9AIADgSm2FTElcwnj3Yzm9xnV3OcoeehRFf/ZZ05YETB2ku7fei5JP7dbcXopOIBHqNLCizFKnVXYIR0qqFjuc8i3UxPM/hhTV/r1ozi08+J3/Bm71LQZWNZ/ps1jFH3sAjhu1D74nnxuAPJzfRY/EvuK9BzS3ZVc7Lbt41ZJp3uLtn9HcVh6YhHjueQOrIWZTEpcgnTyrub3rfdfCcfX7DKwoM0sCUhR4P9hVKzW1VQQJyWO/MbgiYqbJ/wlp/nwQw3MovvcrBleUmWVf+1NUE9A8qyVG/tfgarQz+8aXi/GrhZJ/1P6daNwmt+njjpksW0l3vEP7V/nI55K0ur6ISKfPa27r3GRdOAALexDuWu0flVQEGUoiBiyrNLAibRbjEd1s8mXtn/F3bPhzAyvJzrIehLvqGs1tlTdFKJPWf3EC0Yccu6i5rfP62wysJDvLAsKWezVfiamMy5ATbxpcETGL5jtHuVnDv5QhG0uv5mXYIu2NpYRxhRCSgbUBKS3R1M4Ot+Ii+tH699R6qzYjFURAAEBJ0hhkqdF8JyoD2ecDU4TYkGXTvIWK7jC1tFAPQogK6kFyRHeYWlqoByFEBQWEEBUUEEJU0BhkETH7UvylgHoQQlRQD7KI0Kya/qgHIUQF9SA5opX0pYV6EEJUUA+SI1pJX1qoByFEBQWEEBUUEEJUUEAIUUEBIUQFBYQQFRQQQlTQOkiOaCV9aaEehBAV1IPkiFbSlxbqQQhRQQEhREVhBCQhW10B0VMB/T0LIyAAIE2a+nYez9T3wgqCfb4TOFVLqjZiPIu/vFr7H1qZGDawkvl8Ph8AIBQK2SIkgiAgFAoBuFJbIVLEwrrHe0HMYjE8ByVubg9SU1ODWCyGaDSKaDRq6nur8Xg8qKmpsbqMvMlvDkz9PTXc5Zb1Wn+CY2kF7PJV2dusdsKxuRjAuPEFzeD1etHQ0ICqqipbnNJ4PB5UVVWhoaEBXq/X6nLyxng8cGwuBrvamb2xx/p/p6U9CJclIOxqJxy3loBb54aceMOkqq7wer2oq6sz/X0XMyURg8NfAmYZB/H5McjnkxnbsiXFJlaWoQZL37wi8408p8Ox3g24GCiJi1ASl0ysjhhBuvwa4GLArXfDcWuJak/CriwzsbIMNVj55tw1b0/7OMNz4G5wT4Vjxm24pIt/MKs0YhD50rGp/3FOhYS7wQ2G59K2Za+qMLGy9CwNiGPdxrSPs5UuOPwls8IBANL/hc0oixhEEeMQz//mygNOBg5/CdhKV9r2jrffalJlmVnbg1xVCaZ49gCY4TlwmzyAa/4NHMVzvy64aUJyhTTYD8ji7AddDLhNnvm9iJuFc9Nm84rLwPJ5NG7d7HEIu8oBLsMRRUlcRPK1p80oi+hMEeOYPP5Y2ue4ShfYVbPni7i1TrDLKs0oTZXlASn6i7tm/cxWutL2HimTx38AefiE0WURnU2E/xHy+GD6J13MvNMs5003mlBVdtYH5K/uvPKDmwWzJsv8uCxi/MhOiG8cMrYwogslcQmJF74McfCIajtmjRNwX9kdi7beY3Rpmli+ks5dVQnu7ddAOv06GCcDtjz9jMYssojEi63gTv0UzqoPgquoAeOwfjGPXCEPn0DyzMGpU+K544402HIOjJOBkpia4nduvCvra8xgeUAAoOSBz+Py5z8FppgFU6IhIG+Rho9CCh8FWAe4shvArtgAxv02cGXXgSkqB+NeBbwVHAqQvhQxDohxKBOjgDIOWTgDeews5JEopKFjUBIXc9oeU8KBKWahCBLc995lm7+XLQJSFHg/2FUrwZTmeVGgLE6FZfho2qe58hvhCTyygArJTPLIAMYPbdd9u0wpCxZOFP/Nl3Tfdr4sH4OklP3T98GUr7G6DGKxkp3NYNzLrS5jmm0C4nzHO+H5gP5HJVI4XIEauO9osrqMWWwTEABw330/PLXfBFhbnPkRE3GrbkLJjm9ZXcY8tgoIAHCrb4Hn5q9RSJYQR8V74a75pm0G5jPZLiDAVEiKa38Ertwei0XEIKwDrk2fhPvmh20ZDsAms1jpsMsq4Qk8AvGNQ5g8/hjk0TNWl0TeosQXeD0c64Cz8k64Nn7cVgPydGwbkBTH2i1wrN0ytfD0pwNTFyzmOMeuxLMvVBHjceU3glt7G5xXf8D2wUixfUBS2PKNKHrnRhShBfLIAOTLEUjDx6GMX4ASH4aceAPK5Mi8VVtlSARo9lh/Y2UAPz7v9824V4BxFINxeMGWXwumZC24suvArrjJtqdRahhFURSriyDErmw5SCfELigghKiggBCiggJCiAoKCCEqKCCEqKCAEKKCAkKICgoIISooIISooIAQooICQogKCgghKigghKiggBCiggJCiAoKCCEqKCCEqDDsM+m7du1a8Daqq6sRDAYhCAKampoQi8XmtfH5fOju7gbP8xm3s23btqyvra2t1VyX3+/H5s2bUVdXp/q+u3btQjic+23j9uzZA7/fn7VdLBZDX18fwuEwIpHIrOd8Ph8CgQDq6urg8/k0v/fWrVshCNm/I7m+vh4NDQ2q266trUVjYyOCwaDm99eitbUVoVAIhw8f1nW76RgWkHx2jEx4nkcwGERra+u851I7SWNjY9rX9vT0pA0HADQ2Nqru4JmEw2GEw2H09PQgGAxacqvo1E5SX1+PYDA4L1CRSAShUAjbtm1DIBBAMBjUFBRBELBv3z7VtoIgoKenB9u2bUN7ezsCgUDGtuFwGF1dXbqFJN0+YKSCOcUKBAIZj6qZQpD6Q6bj9/sXvGMLgoCOjg7s3bt3QdvJRSQSQW1tLXw+Hw4fPozm5ua0v5dU73v48GFUV1dj27Ztuh20Ugesffv2oaOjQ3W73d3d0yFZqFQ42tvbF7wtrQomIAAyHoUEQUBvb++8xx9//PGMpwv33XefbnXt378ffX19um0vk0gkgra2NnR3d+d0RG5sbMS+ffuwa9cuhEIh3erx+Xzo7OzMejqtR0isCAdQYAGprq5GfX192uf2798/60gWiUSwf//+tG3VeqN8dXV1aTp3B6Z6L7X/SktL570mFoth9+7daGtrQ3V1dc71+Xy+6SP+3PHKQlRXV8Pv92fsqVMWEpJUD212OIAC+uK4lB07duC5555LuzM++eST0zu+2h8il6Pv3IGgIAjo6+ubt/3U45nGQjPt2bNH8/untLW1IRgM5hWOFJ/Ph/b2duzevRsHDhzIeztzbdmyBYcOHcr6b+/u7kZTU1NOY5Kuri4MDAzk9TvTg2EByTTDkGm2SOuMBM/zaGxsTBuAcDiMvr4+8Dyf8bxY62A12/sD80P40ksvaQpIrsLhMARB0GUywO/3Y8OGDejp6dGtVr/fj46ODk1tUyHp6+vL+u/p6upCJBKxLBxAgZ1ipTQ2NmbcyXt6ejL2HjzP6zbjlG7m5uTJk7pse64nn3xS1+AFg8Gsp0S5yuWg093djb6+PtVxmx3CARRoQABk3GFisVjGad1gMJjXtG466XYIrWOQXIXDYV2nklOnaXrVGwqFsGHDhpxeoxYSu4QDKMAxSEpdXR0OHTqkeerS5/PpupOlG+hqDZ/aouTcRcJwOLygcUcmfr8foVBIl99JKBTKq4dLnW4BmK7DTuEACjggwNRUrdaAtLS06Pre6U5Rcj2KahGLxVBRUaH7dn0+ny49SF9fHwRBUF0sVDMzJLFYDOFwGN3d3QuuSy8FHRC/34/6+vqM07kz2+U7rTs3gIIg4JlnnkkbzM2bN+f1HmoEQYDX69V9uzzP48KFCwvaRmo2b6E7dGdnJ7Zu3Yrq6mpbhQMo8IAAQENDQ8Zp35SF9B5arynTcwJg7nb1XLdIEQQBq1atSvvc4OBgxtcNDg4iEolMzxZ2d3cvaFYQmPo3HjhwQLfxoZ4KPiA+ny/jtC+gPuOlp5aWFkP+wD6fT3WHzVcsFsvY43V0dKQ9rUvN0t1+++1oaWnRdbHVjuEAFkFAgKkBnlpAjBYMBnM6B8/lKlS/329IDxIOhzP2rJ2dnWkPKuFwGK2trWhubta9Hrsq2GnemdSOPkYemXieR3t7u+Eh9Pv9ul7rlQpcrr+bmYuMS8WiCIiZeJ6H3++fvpo139mbXNx333267pRdXV15h7qlpUWXK3MLxaI4xTKSGR/Kycbv94PneU2XZ2QTDodx8uTJvNcZfD4f6uvrsXfv3iVxqkUBsUC2mbF0FyW2tbWhqakJGzZsyHvhMBaLobW1FZ2dnXm9PqW5uRlbt27N+onCxYACYoFsi5ujo6PzHkt99qKtrS2vS95Tl8u3tLTosjLf2NiIjo4O26x4G4XGIAWkurp6uifJZRzQ09ODpqYmtLS06DZmamxsxODgoK4frbYjCkiBqa6uxuHDhxGLxVBbW4uurq60O2kkEkFXVxdqa2sRiUTQ3d2t+4fEWlpaNF/mXqjoFKtAtbe3T39hReoCv5lS32qS7QsY5spl6tfv96OiokLXz5bYDaMoimJ1EYTYFZ1iEaKCAkKICgoIISooIISooIAQooICQogKCgghKigghKiggBCi4v8BZMlNybgnIKEAAAAASUVORK5CYII=;" vertex="1" parent="1">
          <mxGeometry x="1250" y="710" width="230" height="230" as="geometry" />
        </mxCell>
        <mxCell id="ZthvIoCq1YvcusgLg_iF-26" value="" style="endArrow=classic;startArrow=classic;html=1;strokeWidth=10;fontFamily=Roboto;fontSource=https%3A%2F%2Ffonts.googleapis.com%2Fcss2%3Ffamily%3DRoboto%3Awght%40100%26display%3Dswap;fontSize=40;exitX=0.5;exitY=0;exitDx=0;exitDy=0;entryX=0.455;entryY=1;entryDx=0;entryDy=0;entryPerimeter=0;" edge="1" parent="1" source="ZthvIoCq1YvcusgLg_iF-18" target="ZthvIoCq1YvcusgLg_iF-14">
          <mxGeometry width="50" height="50" relative="1" as="geometry">
            <mxPoint x="1450" y="720" as="sourcePoint" />
            <mxPoint x="1570" y="520" as="targetPoint" />
            <Array as="points">
              <mxPoint x="1480" y="650" />
            </Array>
          </mxGeometry>
        </mxCell>
        <mxCell id="ZthvIoCq1YvcusgLg_iF-28" value="" style="shape=image;verticalLabelPosition=bottom;labelBackgroundColor=#ffffff;verticalAlign=top;aspect=fixed;imageAspect=0;image=data:image/png,iVBORw0KGgoAAAANSUhEUgAAAYUAAACBCAMAAAAYG1bYAAAAhFBMVEX///8AAAD5+fnJycnc3NxZWVk0NDRERESjo6PFxcW6urqmpqb29vbPz8/T09PAwMDw8PCRkZGDg4Pr6+t7e3vj4+O7u7uxsbFSUlIjIyOZmZllZWXZ2dmLi4tMTEyHh4dra2spKSkbGxtxcXETExM5OTk1NTVHR0dfX18gICAVFRULCwveVuW4AAAJ7ElEQVR4nO1d6WKqOhCu26n7rlitVqpt7fH93++WQCZBM5MBRHsP8/1rJTDkS2bLJDw9CQQCgUAgEAgEAoFAICgd9f4P6o+WorJodif755dagpfnw6S7eLRMlUK/s32uOfE1aci8uAfGvZWbAY1W0H+0jP86lh4KYpw6j5bzH0Z9ne7s3XzSC5aj0TLoTQ5fqZ+OvUcL+4+iP7HVTnswvrxg3FjbM2UtFuL2MPMg3A7Rq+qN6TtcKPPhxhgddddOX33XDufA1+AeslUF9U3SrX95w7ve1jwcSpasQuhokxvw2/R0G1x7CbJAK5iMal4bkkk5UlUL/Y+4M+eZXZ5xosda69Vu2ixDtspgEffkOZed1apMpkQxDOIu3ORs3rcCiPZNBasSloUdfyvclvRSPiQkFHFzFoaF7s3kqhRidXScFbmHZRpEJeXBq+q772KKZGhYyBBtCDRmcRKiaE7OsFBoTlUVoZoJhROjOoiuzW8hVNVwUF13lb7OjmkSuxW/U/UQqK7z5k85aLTOtS8xCjkwE3v6C/AhmvzxUCY1fLQUFUdf6SNJgz4Wc0mCPh4q9/P30VJUHWp1ZvRoKUj0m43lcjT8xeF4v9mJJMwdcKmp8My5srFqJVhxk9+LXesK+7duJmEb01AH5OdNwG06TJ68Y6eI94l82X3FzhwkPPIlTOHAzma3TJLozLx5s+bGiRsg1tfni6YbXtOGvp5dvql7kjUiDVLlcwr77I7OOGr3xblyZj+pwbs7xgI3Omm7mm44ed/sLPzJxYJTwn3WfNyaLWmqbPXEuzvOQi309+UYqdjnWLH7sDD7QCTMWEAd7Qx5Z115TD2Gp/0IFvxLGQO87dT75Luw0EHE+8GWf5dkWYa1LNZIP2XNuj3Fgk8Pdqm23gKFe7AQUBJmqVNUiWjWuN6kH/LNuj3JAs1+g2xa23uefAcWRrSEGXytqOR6x7mwf/kQlltFs1AjjFjKF6id1r2gbfzBCJ7JWD4LC1ua2uZaQvbKu+olVkb7yhdgzThgIVC7QxWaE46c1vuswCFbvFkC0MOgfBbMnoFay0g4tSTkuuOqb1kKSffKMxTKc7wxYGFp/xdG0Qfa0DB1TNUJjo1ipH2K0lkw3f2eGg/jE/zwwnxyFIh9ci581XfugefCmULAQro6CboIGwBGH60uf4KVbaZZKYkFo4+uFneN2mCmGKJL3zgXwgwYQ5kFPpANEBaetJuN1cPC465IsD0T6slls3BASbAHCutWqpNYiTyrV2AqMradYyxM3P/WAFfAOafBOFCzsWQWxvr2zsUxGESsAsUgHt3MCyMsLeXkD51QFvSkRfoRHue2wCGjv0pmAbSOO2ekT0lwTOVrbGvMxBykEqI/QvsPGhgLerAg81DnDZHYDEwTMYBKZmGXXIx4ihBKcFJekTnnRAtgilQkAgkl/3zDWKBHEvyMuXqhX4ByWajru2NaWU8Gjrr/U+OFeKCJlYYATvwEIiyAaaFbofG51geEY1EuC1or/8EuyLLBLLqOkxDSb5S46KCfvPYZWEiNCSAV0Th6PqOGR3cCUQFYLgs6x4Xm7Ab0G9pQ84rh9oOWS5jtXfyNA1iY9wBbs26DrFLo+6OiaYVAhEXlsqCHOqoStQ/FcOdnV6PUDVhkW1jtrLmBg84jYSLqd8RF03fAn1wuC1t6GLHGicaCvBEAOh16Dfav+RrTLGDG9//DAroLU7PASD0rFvy5UfCJICAHf96n9kgW0AyENr64C5RccMSfXC4LOupEx4mOO1HzbcBkAQ5qA/fcpLk9/jDFAh70aZJRs6O9NGKdqFwWtISoa6NfnBG2qZfxpl8hRrI8EshsevJVBAuEb6b3ZaGdrF0UIrteLgv67qiTpmli5BcUC94N5nv9Ptb0gwVXT40xysInRT5MNSw21sljYgyUywKkkTBdoC0nwwOdcaQ02qe5aMYYW/vXaIWGsLDxWHWdckVUErgLROFPyRmMMLkYsW0Q2DIynqqDfWkIk6YFtKzol15yAxa2nZFGwy8ZrPG4h5qenVQKrGQWtJOErHXpycpa5yHYvBLORt/aUksuubljZy9gKO1dv0IHU0FjySxAYtk5CiHMZVWqREunnkUeeJyNwFp1JTUfls3zQacsXWPErHJR1cNlr/JAFsdhm4yErMXkyIZ4quxgwcLGzlIaZIyelwVTEHZFg3lFUhmWzYIpCLsahkZCXjFM1MUeL8dFQjQKjd2l1HxeFkx0fvkmI1sIAqWv/pvqzQtvdGkk5BUwKstLKnakQK5trfVQtYC5WbDKkc7WYGtadeO0zgUWmHXNhgVW6XRKwnfr7V6t04mYi/9q4pO+Zvr0WsCLXTxMNM/NQrr6cN5tzsaLxtquzfUsbgAL0147hTU2hTQL4UWDNiJ7WsKlknBi+zLcnfcq50Q5SYbwyXBgoWH/RPg/+Vl4sgvAHPAdFoEXWGKjzuUMKmBZCKfJNOBvmv30UAZuscNzB8VI5EoKsGBidhfOPpV7QxbQDtpgLSL85e/pUQOO+B3u6fCkzIzEzWQRFqix9u19xXuwYIqSrhFm2FilZMXtl3FIHJ6GSW3g0VMhFlxhe4yTvzrzLiy4d/JE2Gd5T2UYcK/WeCSuX2FC4mn+Yiw8LdzOAac28z4sPC3c242WRBMHTlgXRzAG2OmNmpmCzqaCLPw8I7x6Q97++Dux8BMefOeU0IKKBzAnxxROuyMz+BmNvyH/kf8sw0FK+bLP/MnOQog18K3UNFJ+xC7H0Tp96jF1gOd3fMWNvgETr8H2cGptpu1GhlP96hgyN2AI/yPhXkk4yHfuoBppv3hTfTWgUtSMdTlBqVBZATkI+MFYymT4DQjFMvwCLElfU3AnKMvATsMLyoFyk+SwsEdDxX5ykOeDEWdH5WucD0a8VCB+0oOhktS3O9e2vuIsAQguoY6gutlB8VHSnXWkgCCFeCHgRhZaLVrk/dBVpRGbhkznjGGIFwQkAMmDeEnnBnokJkG+M5wP89sopXjhSY7tzot4NX9f7CarWxqYSiLe+/BR4Os8i1BIKIxkoT13FJ3UFt/ExlcYSdVFzkWfhET5amFRJGWPYY6PeQ6OBWeSAPCanBVyyGgdZkmlXsjY1Sjwoq4LHycZMkF9veczy7nGAgpQjL1mlmaMocD+d3/S5P+FMVQJzxnH4w6hhDHzZwcEJDpwAkm4JhV9cwLFsp9FPs8tcCIwn1t4n46cpnq2nJtjv8KMxeICHgKYDxETm3V3OEs0Tn827E5O9lcx/ggHpaFj7WvVOF5+regHJ++5MoIimK2xD88Anns3+Cq0wINZgG9lPO8DKRm4GxbBdHfJwOqtK2Hy/VFfDJZB0OsFwWi4kMhAIBAIBAKBQCAQCAQCgUAgEAgEZeM/auFqRfi/XNsAAAAASUVORK5CYII=;" vertex="1" parent="1">
          <mxGeometry x="829.4000000000001" y="210" width="542.8" height="180" as="geometry" />
        </mxCell>
        <mxCell id="ZthvIoCq1YvcusgLg_iF-29" value="" style="endArrow=classic;startArrow=classic;html=1;strokeWidth=10;fontFamily=Roboto;fontSource=https%3A%2F%2Ffonts.googleapis.com%2Fcss2%3Ffamily%3DRoboto%3Awght%40100%26display%3Dswap;fontSize=40;entryX=0.25;entryY=1;entryDx=0;entryDy=0;exitX=0.5;exitY=0;exitDx=0;exitDy=0;" edge="1" parent="1" source="ZthvIoCq1YvcusgLg_iF-9" target="ZthvIoCq1YvcusgLg_iF-28">
          <mxGeometry width="50" height="50" relative="1" as="geometry">
            <mxPoint x="880" y="710" as="sourcePoint" />
            <mxPoint x="930" y="660" as="targetPoint" />
          </mxGeometry>
        </mxCell>
        <mxCell id="ZthvIoCq1YvcusgLg_iF-30" value="" style="endArrow=none;dashed=1;html=1;strokeWidth=10;fontFamily=Roboto;fontSource=https%3A%2F%2Ffonts.googleapis.com%2Fcss2%3Ffamily%3DRoboto%3Awght%40100%26display%3Dswap;fontSize=40;" edge="1" parent="1">
          <mxGeometry width="50" height="50" relative="1" as="geometry">
            <mxPoint x="716" y="1090" as="sourcePoint" />
            <mxPoint x="716" y="10" as="targetPoint" />
          </mxGeometry>
        </mxCell>
        <mxCell id="ZthvIoCq1YvcusgLg_iF-31" value="" style="endArrow=classic;startArrow=classic;html=1;strokeWidth=10;fontFamily=Roboto;fontSource=https%3A%2F%2Ffonts.googleapis.com%2Fcss2%3Ffamily%3DRoboto%3Awght%40100%26display%3Dswap;fontSize=40;entryX=0;entryY=0.5;entryDx=0;entryDy=0;exitX=1;exitY=0.5;exitDx=0;exitDy=0;" edge="1" parent="1" source="ZthvIoCq1YvcusgLg_iF-3" target="ZthvIoCq1YvcusgLg_iF-9">
          <mxGeometry width="50" height="50" relative="1" as="geometry">
            <mxPoint x="880" y="710" as="sourcePoint" />
            <mxPoint x="930" y="660" as="targetPoint" />
          </mxGeometry>
        </mxCell>
        <mxCell id="ZthvIoCq1YvcusgLg_iF-34" value="" style="endArrow=classic;startArrow=classic;html=1;strokeWidth=10;fontFamily=Roboto;fontSource=https%3A%2F%2Ffonts.googleapis.com%2Fcss2%3Ffamily%3DRoboto%3Awght%40100%26display%3Dswap;fontSize=40;entryX=0;entryY=0.5;entryDx=0;entryDy=0;exitX=1;exitY=0.5;exitDx=0;exitDy=0;" edge="1" parent="1" source="ZthvIoCq1YvcusgLg_iF-3" target="ZthvIoCq1YvcusgLg_iF-28">
          <mxGeometry width="50" height="50" relative="1" as="geometry">
            <mxPoint x="880" y="710" as="sourcePoint" />
            <mxPoint x="930" y="660" as="targetPoint" />
          </mxGeometry>
        </mxCell>
        <mxCell id="ZthvIoCq1YvcusgLg_iF-36" value="" style="group" vertex="1" connectable="0" parent="1">
          <mxGeometry x="1455" y="180" width="205" height="370" as="geometry" />
        </mxCell>
        <mxCell id="ZthvIoCq1YvcusgLg_iF-14" value="&lt;b&gt;PostgreSQL&lt;/b&gt;" style="text;html=1;align=center;verticalAlign=middle;resizable=0;points=[];autosize=1;fontSize=35;fontFamily=Roboto;" vertex="1" parent="ZthvIoCq1YvcusgLg_iF-36">
          <mxGeometry y="320" width="200" height="50" as="geometry" />
        </mxCell>
        <mxCell id="ZthvIoCq1YvcusgLg_iF-35" value="" style="image;html=1;image=img/lib/clip_art/computers/Database_128x128.png" vertex="1" parent="ZthvIoCq1YvcusgLg_iF-36">
          <mxGeometry width="205" height="310" as="geometry" />
        </mxCell>
        <mxCell id="ZthvIoCq1YvcusgLg_iF-39" value="" style="shape=image;html=1;verticalAlign=top;verticalLabelPosition=bottom;labelBackgroundColor=#ffffff;imageAspect=0;aspect=fixed;image=https://cdn4.iconfinder.com/data/icons/wirecons-free-vector-icons/32/add-128.png" vertex="1" parent="1">
          <mxGeometry x="1110" y="746" width="128" height="128" as="geometry" />
        </mxCell>
      </root>
    </mxGraphModel>
  </diagram>
</mxfile>
